<?xml version="1.0" encoding="UTF-8"?>
<svg version="1.1" xmlns="http://www.w3.org/2000/svg" width="358" height="68">
<path d="M0 0 C1.59112419 -0.00668677 1.59112419 -0.00668677 3.2143923 -0.01350862 C4.37876802 -0.01332426 5.54314374 -0.01313989 6.74280357 -0.01294994 C8.59944651 -0.01846498 8.59944651 -0.01846498 10.49359739 -0.02409142 C13.93134566 -0.03321186 17.36904621 -0.03782655 20.80680203 -0.04048073 C24.51384996 -0.04438685 28.22088409 -0.05396498 31.9279232 -0.0626936 C40.88151368 -0.08244938 49.83510527 -0.09252312 58.78871208 -0.10142139 C63.00631379 -0.10580576 67.22391425 -0.11117219 71.44151497 -0.11641026 C85.46384038 -0.1334217 99.486165 -0.14791554 113.50849915 -0.155159 C117.14677112 -0.15706885 120.78504309 -0.15898919 124.42331505 -0.16094494 C125.77970772 -0.16167055 125.77970772 -0.16167055 127.16350226 -0.16241082 C141.80968038 -0.1707099 156.4557768 -0.19604513 171.10191925 -0.22852562 C186.14256086 -0.26160873 201.18316097 -0.27960889 216.22383916 -0.28280324 C224.66709801 -0.28496718 233.11023771 -0.29369887 241.55346107 -0.31926441 C248.74458595 -0.34098854 255.93556272 -0.34901343 263.12671669 -0.33929763 C266.79383167 -0.33475784 270.46064121 -0.33662002 274.12771416 -0.35605907 C278.10907447 -0.37698129 282.09001583 -0.36668952 286.07141685 -0.35352612 C287.22240824 -0.36449536 288.37339963 -0.37546461 289.55926955 -0.38676625 C299.68612325 -0.30603625 307.56866806 2.15791214 314.97165489 9.23187733 C322.09745347 16.69481046 325.38214323 23.67306331 325.95212364 34.14984608 C325.61593963 44.0284841 321.65228846 52.45634582 314.91306114 59.63422108 C308.68350547 65.37448215 302.03233182 68.2519404 293.57612228 68.26844215 C292.51537282 68.2729 291.45462336 68.27735784 290.36172998 68.28195077 C289.19735426 68.28176641 288.03297854 68.28158205 286.83331871 68.2813921 C284.97667577 68.28690713 284.97667577 68.28690713 283.0825249 68.29253358 C279.64477663 68.30165401 276.20707607 68.3062687 272.76932025 68.30892289 C269.06227233 68.31282901 265.35523819 68.32240714 261.64819908 68.33113575 C252.69460861 68.35089153 243.74101702 68.36096527 234.7874102 68.36986354 C230.56980849 68.37424792 226.35220803 68.37961434 222.13460732 68.38485241 C208.11228191 68.40186385 194.08995728 68.41635769 180.06762314 68.42360115 C176.42935116 68.42551101 172.79107919 68.42743135 169.15280724 68.42938709 C167.79641457 68.4301127 167.79641457 68.4301127 166.41262002 68.43085297 C151.7664419 68.43915205 137.12034548 68.46448729 122.47420304 68.49696777 C107.43356142 68.53005089 92.39296131 68.54805105 77.35228312 68.55124539 C68.90902427 68.55340933 60.46588457 68.56214102 52.02266121 68.58770657 C44.83153634 68.60943069 37.64055956 68.61745559 30.4494056 68.60773978 C26.78229061 68.6032 23.11548107 68.60506217 19.44840813 68.62450123 C15.46704781 68.64542344 11.48610645 68.63513168 7.50470543 68.62196827 C5.77821835 68.63842214 5.77821835 68.63842214 4.01685274 68.65520841 C-6.11000096 68.57447841 -13.99254578 66.11053002 -21.39553261 59.03656483 C-28.52133118 51.5736317 -31.80602095 44.59537885 -32.37600136 34.11859608 C-32.03981734 24.23995806 -28.07616618 15.81209633 -21.33693886 8.63422108 C-15.10738318 2.89396001 -8.45620954 0.01650176 0 0 Z M-22.21193886 14.13422108 C-27.61743396 22.58987573 -30.11691489 30.13922543 -28.64943886 40.07172108 C-26.61769238 48.781141 -21.68319112 56.218401 -14.21193886 61.13422108 C-6.72645497 65.08309902 0.03431165 65.7075946 8.38840294 65.64215565 C9.62312434 65.64839561 10.85784575 65.65463557 12.12998295 65.66106462 C15.53167445 65.67419394 18.93247379 65.66955793 22.33410978 65.65711975 C26.01244475 65.64803047 29.69070449 65.66205811 33.36902428 65.67303944 C40.56470295 65.69078808 47.76021435 65.68700105 54.95589948 65.67538887 C60.80608504 65.66634039 66.65622386 65.66513666 72.50641441 65.66948414 C73.34033138 65.67009707 74.17424835 65.67071 75.03343552 65.67134151 C76.72773688 65.67262046 78.42203823 65.67391732 80.11633956 65.67523187 C95.98867562 65.68662696 111.86091913 65.6735408 127.73324001 65.65203041 C141.34042723 65.63416039 154.94747794 65.6372648 168.5546627 65.65570545 C184.37177368 65.67713111 200.18880363 65.68552843 216.00592709 65.6732564 C217.693854 65.67198226 219.38178093 65.67072477 221.06970787 65.66948414 C222.31531432 65.66855849 222.31531432 65.66855849 223.58608454 65.66761413 C229.42649105 65.66416632 235.26684598 65.6699773 241.10724449 65.67940235 C248.22871388 65.69064258 255.35000699 65.68753989 262.47145629 65.66627938 C266.10214099 65.65579604 269.73253223 65.6516003 273.36321449 65.66487598 C277.3048806 65.67907039 281.24607041 65.66207572 285.18771935 65.64215565 C286.32683612 65.65107853 287.46595289 65.66000142 288.63958836 65.6691947 C298.44819262 65.57319145 306.71524327 63.16552559 313.96384239 56.31390858 C320.20483749 48.85678809 323.35711824 40.34614884 322.59665489 30.70843983 C321.31097394 22.00640977 316.946172 13.81893275 309.83771801 8.4828229 C302.01580936 3.3362833 294.35301558 2.55449325 285.18771935 2.62628651 C283.95299794 2.62004654 282.71827654 2.61380658 281.44613934 2.60737753 C278.04444783 2.59424822 274.64364849 2.59888423 271.2420125 2.6113224 C267.56367753 2.62041168 263.88541779 2.60638405 260.20709801 2.59540272 C253.01141933 2.57765407 245.81590793 2.58144111 238.62022281 2.59305328 C232.77003725 2.60210177 226.91989843 2.60330549 221.06970787 2.59895802 C220.2357909 2.59834508 219.40187394 2.59773215 218.54268676 2.59710065 C216.8483854 2.59582169 215.15408405 2.59452484 213.45978272 2.59321028 C197.58744666 2.58181519 181.71520315 2.59490135 165.84288228 2.61641175 C152.23569505 2.63428176 138.62864434 2.63117735 125.02145958 2.6127367 C109.20434861 2.59131104 93.38731866 2.58291373 77.5701952 2.59518576 C75.88226828 2.5964599 74.19434135 2.59771738 72.50641441 2.59895802 C71.26080796 2.59988367 71.26080796 2.59988367 69.99003774 2.60082802 C64.14963124 2.60427584 58.30927631 2.59846486 52.46887779 2.5890398 C45.34740841 2.57779957 38.22611529 2.58090226 31.10466599 2.60216278 C27.47398129 2.61264611 23.84359005 2.61684186 20.21290779 2.60356617 C16.27124169 2.58937177 12.33005187 2.60636643 8.38840294 2.62628651 C7.24928617 2.61736362 6.11016939 2.60844073 4.93653393 2.59924746 C-5.80192354 2.70435179 -15.14459224 5.68972555 -22.21193886 14.13422108 Z " fill="#FE6200" transform="translate(32.21193885803223,-0.13422107696533203)"/>
<path d="M0 0 C3.55036548 2.69827777 5.29914887 4.28509347 7.125 8.375 C7.87159407 13.97830397 7.8997572 18.70629219 5.5 23.875 C0.9635263 28.65023547 -2.17505706 30.63090151 -8.8125 30.9375 C-13.66605541 30.76286835 -16.8611937 30.06803405 -20.5390625 26.84765625 C-24.65049412 22.31546409 -25.48646568 17.85917017 -25.2890625 11.91015625 C-24.38787423 6.39250357 -21.6049418 2.66239855 -17.1875 -0.625 C-11.38221319 -2.37753941 -5.52857382 -2.84156805 0 0 Z " fill="#FF0808" transform="translate(226.875,19.625)"/>
<path d="M0 0 C2.38671875 0.08984375 2.38671875 0.08984375 5 1 C7.20289583 4.48655858 8.45266263 8.1537614 10 12 C14.95 12 19.9 12 25 12 C25 11.34 25 10.68 25 10 C23.96939453 10.03480469 23.96939453 10.03480469 22.91796875 10.0703125 C21.56638672 10.09738281 21.56638672 10.09738281 20.1875 10.125 C19.29417969 10.14820313 18.40085937 10.17140625 17.48046875 10.1953125 C15 10 15 10 12 8 C12.25561323 5.6568787 12.59270772 3.32156597 13 1 C16.01213029 -0.50606515 19.11282622 -0.12160331 22.4140625 -0.09765625 C23.14370209 -0.0962413 23.87334167 -0.09482635 24.62509155 -0.09336853 C26.95843585 -0.08776531 29.29168464 -0.07521235 31.625 -0.0625 C33.20572778 -0.05748541 34.78645707 -0.05292243 36.3671875 -0.04882812 C40.24482854 -0.03779484 44.12239807 -0.02052811 48 0 C48 1.32 48 2.64 48 4 C45.69 4.33 43.38 4.66 41 5 C40.34 8.63 39.68 12.26 39 16 C37.35 16 35.7 16 34 16 C34.14168137 14.56208484 34.28851043 13.1246763 34.4375 11.6875 C34.51871094 10.88699219 34.59992188 10.08648437 34.68359375 9.26171875 C35 7 35 7 36 4 C29.4 4 22.8 4 16 4 C16 4.66 16 5.32 16 6 C16.77085938 5.96519531 17.54171875 5.93039063 18.3359375 5.89453125 C19.33882812 5.86746094 20.34171875 5.84039063 21.375 5.8125 C22.87160156 5.76029297 22.87160156 5.76029297 24.3984375 5.70703125 C25.25695312 5.80371094 26.11546875 5.90039062 27 6 C29 9 29 9 28.75 11.5625 C28 14 28 14 26 16 C22.6864424 16.44804715 19.34040137 16.32409862 16 16.3125 C15.071875 16.32861328 14.14375 16.34472656 13.1875 16.36132812 C12.300625 16.36197266 11.41375 16.36261719 10.5 16.36328125 C9.27796875 16.36775269 9.27796875 16.36775269 8.03125 16.37231445 C7.3609375 16.24945068 6.690625 16.12658691 6 16 C5.34 15.01 4.68 14.02 4 13 C2.098006 12.52441794 2.098006 12.52441794 0 12.625 C-1.051875 12.61339844 -1.051875 12.61339844 -2.125 12.6015625 C-4.41058594 12.859086 -4.41058594 12.859086 -6 16 C-8.625 16.1875 -8.625 16.1875 -11 16 C-9.38677027 12.44413762 -7.24743046 9.45249622 -4.9375 6.3125 C-4.22464844 5.33925781 -3.51179688 4.36601562 -2.77734375 3.36328125 C-1 1 -1 1 0 0 Z M1 5 C0.34 6.32 -0.32 7.64 -1 9 C0.32 9 1.64 9 3 9 C2.34 7.68 1.68 6.36 1 5 Z " fill="#000000" transform="translate(47,26)"/>
<path d="M0 0 C-0.33 1.98 -0.66 3.96 -1 6 C-0.195625 6.515625 0.60875 7.03125 1.4375 7.5625 C4 10 4 10 5.0625 13.4375 C4.98713481 17.73331579 4.03450339 19.05219671 1 22 C-1.88861709 23.44430855 -3.79647701 23.37688506 -7 23 C-9.8125 20.5625 -9.8125 20.5625 -12 18 C-12.33 17.67 -12.66 17.34 -13 17 C-13.38608354 11.98091393 -13.14532484 8.98407813 -10 5 C-6.74629646 1.69161237 -4.86804671 0 0 0 Z " fill="#FFF2F2" transform="translate(222,20)"/>
<path d="M0 0 C1.77049689 -0.05410687 3.54146849 -0.09284119 5.3125 -0.125 C6.29863281 -0.14820312 7.28476563 -0.17140625 8.30078125 -0.1953125 C11 0 11 0 14 2 C13.814375 2.969375 13.62875 3.93875 13.4375 4.9375 C13.293125 5.948125 13.14875 6.95875 13 8 C13.33 8.33 13.66 8.66 14 9 C14.25 11.4375 14.25 11.4375 14 14 C10.2632157 16.49118953 8.25548181 16.2065226 3.8125 16.125 C2.54019531 16.10695313 1.26789063 16.08890625 -0.04296875 16.0703125 C-1.01878906 16.04710938 -1.99460938 16.02390625 -3 16 C-3.1272674 11.66760549 -3.00452609 8.13725817 -1.5 4.0625 C-1.2215625 3.29035156 -0.943125 2.51820312 -0.65625 1.72265625 C-0.33140625 0.86994141 -0.33140625 0.86994141 0 0 Z M3 4 C3 4.66 3 5.32 3 6 C4.98 6 6.96 6 9 6 C9 5.34 9 4.68 9 4 C7.02 4 5.04 4 3 4 Z M2 9 C2 10.32 2 11.64 2 13 C3.98 13 5.96 13 8 13 C8.33 11.68 8.66 10.36 9 9 C6.69 9 4.38 9 2 9 Z " fill="#000000" transform="translate(142,26)"/>
<path d="M0 0 C1.98 0 3.96 0 6 0 C6 0.99 6 1.98 6 3 C5.01 3 4.02 3 3 3 C3 3.66 3 4.32 3 5 C3.66 5 4.32 5 5 5 C5 5.99 5 6.98 5 8 C4.34 8 3.68 8 3 8 C3 10.97 3 13.94 3 17 C1.68 17 0.36 17 -1 17 C-1 14.03 -1 11.06 -1 8 C-1.66 8 -2.32 8 -3 8 C-3 10.97 -3 13.94 -3 17 C-9.8359375 17.1953125 -9.8359375 17.1953125 -12 17 C-12.66 16.34 -13.32 15.68 -14 15 C-13.625 12.5625 -13.625 12.5625 -13 10 C-13 9.01 -13 8.02 -13 7 C-13 6.34 -13 5.68 -13 5 C-8.6835078 4.23826608 -5.25566547 3.83936396 -1 5 C-0.67 3.35 -0.34 1.7 0 0 Z M-11 8 C-7 9 -7 9 -7 9 Z M-10 12 C-10 12.66 -10 13.32 -10 14 C-9.01 13.67 -8.02 13.34 -7 13 C-7.99 12.67 -8.98 12.34 -10 12 Z " fill="#FF0000" transform="translate(290,24)"/>
<path d="M0 0 C4.62 0 9.24 0 14 0 C14 1.32 14 2.64 14 4 C10.7 4 7.4 4 4 4 C4 4.66 4 5.32 4 6 C6.64 6 9.28 6 12 6 C11.67 7.32 11.34 8.64 11 10 C8.36 10 5.72 10 3 10 C3 10.66 3 11.32 3 12 C5.97 12 8.94 12 12 12 C12 13.32 12 14.64 12 16 C7.38 16 2.76 16 -2 16 C-3.76733448 10.69799657 -1.31300906 5.30455661 0 0 Z " fill="#000000" transform="translate(126,26)"/>
<path d="M0 0 C1.93166016 0.01740234 1.93166016 0.01740234 3.90234375 0.03515625 C5.19269531 0.04417969 6.48304687 0.05320312 7.8125 0.0625 C8.81152344 0.07410156 9.81054688 0.08570312 10.83984375 0.09765625 C10.50984375 1.41765625 10.17984375 2.73765625 9.83984375 4.09765625 C6.86984375 4.09765625 3.89984375 4.09765625 0.83984375 4.09765625 C0.83984375 4.75765625 0.83984375 5.41765625 0.83984375 6.09765625 C3.80984375 6.59265625 3.80984375 6.59265625 6.83984375 7.09765625 C6.50984375 8.41765625 6.17984375 9.73765625 5.83984375 11.09765625 C3.85984375 11.42765625 1.87984375 11.75765625 -0.16015625 12.09765625 C-0.49015625 13.41765625 -0.82015625 14.73765625 -1.16015625 16.09765625 C-2.81015625 16.09765625 -4.46015625 16.09765625 -6.16015625 16.09765625 C-5.85277964 13.6177537 -5.53951542 11.1388489 -5.22265625 8.66015625 C-5.13564453 7.95310547 -5.04863281 7.24605469 -4.95898438 6.51757812 C-4.13350224 0.12773493 -4.13350224 0.12773493 0 0 Z " fill="#000000" transform="translate(32.16015625,25.90234375)"/>
<path d="M0 0 C0.99 0 1.98 0 3 0 C3 5.61 3 11.22 3 17 C-5 17 -5 17 -7 15.875 C-8.504106 13.05480125 -8.44912849 11.14389944 -8 8 C-6.25 5.625 -6.25 5.625 -4 4 C-2.68 4 -1.36 4 0 4 C0 2.68 0 1.36 0 0 Z M-3 8 C-3.33 9.65 -3.66 11.3 -4 13 C-2.68 13 -1.36 13 0 13 C0 11.35 0 9.7 0 8 C-0.99 8 -1.98 8 -3 8 Z " fill="#FF0000" transform="translate(272,24)"/>
<path d="M0 0 C2.9375 0.875 2.9375 0.875 4.3125 2.75 C4.9375 4.875 4.9375 4.875 4.9375 7.875 C3.6175 8.205 2.2975 8.535 0.9375 8.875 C1.9275 8.875 2.9175 8.875 3.9375 8.875 C3.6075 10.195 3.2775 11.515 2.9375 12.875 C-3.4458448 13.35676187 -3.4458448 13.35676187 -6.0625 11.3125 C-7.49385511 7.82357191 -6.996466 5.47744028 -6.0625 1.875 C-3.0625 -0.125 -3.0625 -0.125 0 0 Z " fill="#FF0000" transform="translate(327.0625,28.125)"/>
<path d="M0 0 C1.65 0 3.3 0 5 0 C5.33 0.66 5.66 1.32 6 2 C6.33 1.34 6.66 0.68 7 0 C11.66666667 0 16.33333333 0 21 0 C17.40883362 4.73381022 12.61791195 5.94810248 7 7 C3.31540156 7.21838099 -0.31502017 7.18915296 -4 7 C-3.34 6.67 -2.68 6.34 -2 6 C-1.27306096 4.02111039 -0.60183749 2.02045442 0 0 Z " fill="#000000" transform="translate(94,41)"/>
<path d="M0 0 C1 1 1 1 1.09765625 3.50390625 C1.08605469 4.51324219 1.07445312 5.52257813 1.0625 6.5625 C1.05347656 7.57441406 1.04445313 8.58632813 1.03515625 9.62890625 C1.02355469 10.41136719 1.01195312 11.19382812 1 12 C-0.32 12 -1.64 12 -3 12 C-3 9.03 -3 6.06 -3 3 C-3.99 3 -4.98 3 -6 3 C-6 5.97 -6 8.94 -6 12 C-7.32 12 -8.64 12 -10 12 C-10 8.04 -10 4.08 -10 0 C-5.66473162 -0.86705368 -4.00869538 -1.11352649 0 0 Z " fill="#FF0000" transform="translate(318,29)"/>
<path d="M0 0 C2.875 0.9375 2.875 0.9375 4.875 3.9375 C5.20002803 7.05776907 5.38651479 9.08497535 3.75 11.8125 C0.99409116 13.46604531 -0.97575452 13.33115568 -4.125 12.9375 C-6 11.8125 -6 11.8125 -7.125 9.9375 C-7.66900387 6.28490261 -7.56274093 4.5941114 -5.5 1.5 C-3.125 -0.0625 -3.125 -0.0625 0 0 Z M-2.125 3.9375 C-2.455 5.5875 -2.785 7.2375 -3.125 8.9375 C-1.805 8.9375 -0.485 8.9375 0.875 8.9375 C0.875 7.2875 0.875 5.6375 0.875 3.9375 C-0.115 3.9375 -1.105 3.9375 -2.125 3.9375 Z " fill="#FF0000" transform="translate(302.125,28.0625)"/>
<path d="M0 0 C2.9375 0.8125 2.9375 0.8125 4.9375 2.8125 C5.25287716 7.14893601 5.38647847 9.13903229 2.9375 12.8125 C-0.5 13.3125 -0.5 13.3125 -4.0625 12.8125 C-6.0625 10.625 -6.0625 10.625 -7.0625 7.8125 C-6.9261192 4.94850325 -6.40179501 3.34822896 -4.875 0.9375 C-3.0625 -0.1875 -3.0625 -0.1875 0 0 Z M-2.0625 3.8125 C-3.07361093 6.86163228 -3.07361093 6.86163228 -2.0625 9.8125 C-0.7425 9.1525 0.5775 8.4925 1.9375 7.8125 C1.6075 6.4925 1.2775 5.1725 0.9375 3.8125 C-0.0525 3.8125 -1.0425 3.8125 -2.0625 3.8125 Z " fill="#FF0000" transform="translate(258.0625,28.1875)"/>
<path d="M0 0 C2.31 0 4.62 0 7 0 C8 2 8 2 7.58203125 3.8046875 C4.74764868 11.43018377 4.74764868 11.43018377 1 14 C-2.25 14.25 -2.25 14.25 -5 14 C-4.731875 13.360625 -4.46375 12.72125 -4.1875 12.0625 C-2.64635858 8.08797739 -1.32390688 4.05115505 0 0 Z " fill="#000000" transform="translate(117,26)"/>
<path d="M0 0 C2.31 0 4.62 0 7 0 C6.3411215 10.42845633 6.3411215 10.42845633 3 14 C1.02 14 -0.96 14 -3 14 C-2.01 9.38 -1.02 4.76 0 0 Z " fill="#000000" transform="translate(106,26)"/>
<path d="M0 0 C2.375 0.3125 2.375 0.3125 5 1 C5.66 1.99 6.32 2.98 7 4 C7.66 2.68 8.32 1.36 9 0 C10.32 0.33 11.64 0.66 13 1 C12.43613497 2.65260442 11.84821283 4.29701637 11.25 5.9375 C10.92515625 6.85402344 10.6003125 7.77054688 10.265625 8.71484375 C9 11 9 11 6.859375 11.81640625 C6.24578125 11.87699219 5.6321875 11.93757813 5 12 C4.16180842 10.37750059 3.3295884 8.75191503 2.5 7.125 C2.0359375 6.22007813 1.571875 5.31515625 1.09375 4.3828125 C0 2 0 2 0 0 Z " fill="#FF0000" transform="translate(239,29)"/>
<path d="M0 0 C1.98 0 3.96 0 6 0 C6.3690205 9.41002278 6.3690205 9.41002278 4 14 C2.35 14 0.7 14 -1 14 C-0.67 9.38 -0.34 4.76 0 0 Z " fill="#000000" transform="translate(96,26)"/>
<path d="M0 0 C0.66 0 1.32 0 2 0 C2 2.31 2 4.62 2 7 C4.31 7 6.62 7 9 7 C9 7.66 9 8.32 9 9 C6.69 9 4.38 9 2 9 C2 11.31 2 13.62 2 16 C1.34 16 0.68 16 0 16 C0 13.69 0 11.38 0 9 C-2.31 9 -4.62 9 -7 9 C-7 8.34 -7 7.68 -7 7 C-4.69 7 -2.38 7 0 7 C0 4.69 0 2.38 0 0 Z " fill="#000000" transform="translate(178,26)"/>
</svg>
